<?xml version="1.0" encoding="utf-8"?>
<!-- Generator: Adobe Illustrator 24.2.1, SVG Export Plug-In . SVG Version: 6.00 Build 0)  -->
<svg version="1.1" id="Calque_1" xmlns="http://www.w3.org/2000/svg" xmlns:xlink="http://www.w3.org/1999/xlink" x="0px" y="0px"
	 viewBox="0 0 446 386.7" style="enable-background:new 0 0 446 386.7;" xml:space="preserve">
<style type="text/css">
	.st0{fill:#EE171E;}
</style>
<path class="st0" d="M407.8,31.9c-0.7-0.7-1.4-1.4-2.1-2.1C337-35.8,223,14.2,223,109.1l0,0c0-94.9-114-144.9-182.6-79.3
	c-0.7,0.7-1.4,1.4-2.1,2.1c-51,51-51,133.7,0,184.8l184.8,170l0,0l184.8-170C458.8,165.6,458.8,82.9,407.8,31.9z"/>
<text transform="matrix(1 0 0 1 -316.985 748.3352)" style="font-family:'HelveticaNeue-Bold'; font-size:5px;">Created by Syria Sirigu</text>
<text transform="matrix(1 0 0 1 -316.985 753.3352)" style="font-family:'HelveticaNeue-Bold'; font-size:5px;">from the Noun Project</text>
</svg>
