<?xml version="1.0" encoding="utf-8"?>
<!-- Generator: Adobe Illustrator 24.2.1, SVG Export Plug-In . SVG Version: 6.00 Build 0)  -->
<svg version="1.1" id="Calque_1" xmlns="http://www.w3.org/2000/svg" xmlns:xlink="http://www.w3.org/1999/xlink" x="0px" y="0px"
	 viewBox="0 0 471 411.7" style="enable-background:new 0 0 471 411.7;" xml:space="preserve">
<style type="text/css">
	.st0{fill:#EE171E;}
</style>
<path class="st0" d="M235.5,411.7c-3,0-6.1-1.1-8.5-3.3l-184.8-170c-0.1-0.1-0.2-0.2-0.4-0.4C14.9,211,0,175,0,136.8
	S14.9,62.6,41.9,35.6c0.8-0.8,1.6-1.5,2.4-2.3C79.4-0.3,129.2-9.2,174.1,10c25.6,10.9,45.7,29.2,58.5,51.9c1.3,2.3,4.5,2.3,5.8,0
	c12.8-22.7,32.9-40.9,58.5-51.9c45-19.2,94.7-10.3,129.9,23.3c0.8,0.8,1.6,1.5,2.3,2.3c27,27,41.9,63,41.9,101.2
	S456.1,211,429.1,238c-0.1,0.1-0.2,0.2-0.4,0.4L244,408.4C241.6,410.6,238.6,411.7,235.5,411.7L235.5,411.7z M59.4,220.2L231,378.1
	c2.5,2.3,6.4,2.3,9,0l171.6-157.9c45.9-46.1,45.8-120.9-0.2-166.9c-0.6-0.6-1.3-1.3-1.9-1.9c-27.8-26.6-67-33.3-102.8-18.4
	c-29.9,12.5-50.4,45-61.4,67.5c-4,8-15.4,8-19.3-0.1C215.2,78.1,195,45.9,164.3,33c-35.7-15.1-75-8.2-102.8,18.4
	c-0.7,0.6-1.3,1.3-1.9,1.9C13.6,99.3,13.5,174.1,59.4,220.2L59.4,220.2z M420.2,229.2L420.2,229.2L420.2,229.2z"/>
</svg>
